<?xml version="1.0" encoding="utf-8" standalone="no"?>
<!DOCTYPE svg PUBLIC "-//W3C//DTD SVG 1.1//EN"
  "http://www.w3.org/Graphics/SVG/1.1/DTD/svg11.dtd">
<svg xmlns:xlink="http://www.w3.org/1999/xlink" width="544.5pt" height="380.304pt" viewBox="0 0 544.5 380.304" xmlns="http://www.w3.org/2000/svg" version="1.1">
 <metadata>
  <rdf:RDF xmlns:dc="http://purl.org/dc/elements/1.1/" xmlns:cc="http://creativecommons.org/ns#" xmlns:rdf="http://www.w3.org/1999/02/22-rdf-syntax-ns#">
   <cc:Work>
    <dc:type rdf:resource="http://purl.org/dc/dcmitype/StillImage"/>
    <dc:date>2026-09-29T19:03:56.077173</dc:date>
    <dc:format>image/svg+xml</dc:format>
    <dc:creator>
     <cc:Agent>
      <dc:title>Matplotlib v3.9.2, https://matplotlib.org/</dc:title>
     </cc:Agent>
    </dc:creator>
   </cc:Work>
  </rdf:RDF>
 </metadata>
 <defs>
  <style type="text/css">*{stroke-linejoin: round; stroke-linecap: butt}</style>
 </defs>
 <g id="figure_1">
  <g id="patch_1">
   <path d="M 0 380.304 
L 544.5 380.304 
L 544.5 0 
L 0 0 
z
" style="fill: #ffffff"/>
  </g>
  <g id="axes_1">
   <g id="patch_2">
    <path d="M 18.081 177.4008 
L 102.339 177.4008 
Q 107.361 177.4008 107.361 172.4112 
L 107.361 116.4168 
Q 107.361 111.4272 102.339 111.4272 
L 18.081 111.4272 
Q 13.059 111.4272 13.059 116.4168 
L 13.059 172.4112 
Q 13.059 177.4008 18.081 177.4008 
z
" clip-path="url(#p72c183ff12)" style="fill: #fef3c7; stroke: #1f2937; stroke-width: 1.1; stroke-linejoin: miter"/>
   </g>
   <g id="patch_3">
    <path d="M 124.101 177.4008 
L 208.359 177.4008 
Q 213.381 177.4008 213.381 172.4112 
L 213.381 116.4168 
Q 213.381 111.4272 208.359 111.4272 
L 124.101 111.4272 
Q 119.079 111.4272 119.079 116.4168 
L 119.079 172.4112 
Q 119.079 177.4008 124.101 177.4008 
z
" clip-path="url(#p72c183ff12)" style="fill: #fef3c7; stroke: #1f2937; stroke-width: 1.1; stroke-linejoin: miter"/>
   </g>
   <g id="patch_4">
    <path d="M 105.45282 144.414 
Q 113.219456 144.414 119.532648 144.414 
" clip-path="url(#p72c183ff12)" style="fill: none; stroke: #374151; stroke-width: 1.3; stroke-linecap: round"/>
    <path d="M 114.332648 141.814 
L 119.532648 144.414 
L 114.332648 147.014 
z
" clip-path="url(#p72c183ff12)" style="fill: #374151; stroke: #374151; stroke-width: 1.3; stroke-linecap: round"/>
   </g>
   <g id="patch_5">
    <path d="M 230.121 177.4008 
L 314.379 177.4008 
Q 319.401 177.4008 319.401 172.4112 
L 319.401 116.4168 
Q 319.401 111.4272 314.379 111.4272 
L 230.121 111.4272 
Q 225.099 111.4272 225.099 116.4168 
L 225.099 172.4112 
Q 225.099 177.4008 230.121 177.4008 
z
" clip-path="url(#p72c183ff12)" style="fill: #fef3c7; stroke: #1f2937; stroke-width: 1.1; stroke-linejoin: miter"/>
   </g>
   <g id="patch_6">
    <path d="M 211.47282 144.414 
Q 219.239456 144.414 225.552648 144.414 
" clip-path="url(#p72c183ff12)" style="fill: none; stroke: #374151; stroke-width: 1.3; stroke-linecap: round"/>
    <path d="M 220.352648 141.814 
L 225.552648 144.414 
L 220.352648 147.014 
z
" clip-path="url(#p72c183ff12)" style="fill: #374151; stroke: #374151; stroke-width: 1.3; stroke-linecap: round"/>
   </g>
   <g id="patch_7">
    <path d="M 336.141 177.4008 
L 420.399 177.4008 
Q 425.421 177.4008 425.421 172.4112 
L 425.421 116.4168 
Q 425.421 111.4272 420.399 111.4272 
L 336.141 111.4272 
Q 331.119 111.4272 331.119 116.4168 
L 331.119 172.4112 
Q 331.119 177.4008 336.141 177.4008 
z
" clip-path="url(#p72c183ff12)" style="fill: #fef3c7; stroke: #1f2937; stroke-width: 1.1; stroke-linejoin: miter"/>
   </g>
   <g id="patch_8">
    <path d="M 317.49282 144.414 
Q 325.259456 144.414 331.572648 144.414 
" clip-path="url(#p72c183ff12)" style="fill: none; stroke: #374151; stroke-width: 1.3; stroke-linecap: round"/>
    <path d="M 326.372648 141.814 
L 331.572648 144.414 
L 326.372648 147.014 
z
" clip-path="url(#p72c183ff12)" style="fill: #374151; stroke: #374151; stroke-width: 1.3; stroke-linecap: round"/>
   </g>
   <g id="patch_9">
    <path d="M 442.161 177.4008 
L 526.419 177.4008 
Q 531.441 177.4008 531.441 172.4112 
L 531.441 116.4168 
Q 531.441 111.4272 526.419 111.4272 
L 442.161 111.4272 
Q 437.139 111.4272 437.139 116.4168 
L 437.139 172.4112 
Q 437.139 177.4008 442.161 177.4008 
z
" clip-path="url(#p72c183ff12)" style="fill: #fef3c7; stroke: #1f2937; stroke-width: 1.1; stroke-linejoin: miter"/>
   </g>
   <g id="patch_10">
    <path d="M 423.51282 144.414 
Q 431.279456 144.414 437.592648 144.414 
" clip-path="url(#p72c183ff12)" style="fill: none; stroke: #374151; stroke-width: 1.3; stroke-linecap: round"/>
    <path d="M 432.392648 141.814 
L 437.592648 144.414 
L 432.392648 147.014 
z
" clip-path="url(#p72c183ff12)" style="fill: #374151; stroke: #374151; stroke-width: 1.3; stroke-linecap: round"/>
   </g>
   <g id="patch_11">
    <path d="M 482.649615 114.164172 
Q 272.25005 -31.976137 63.044223 113.334951 
" clip-path="url(#p72c183ff12)" style="fill: none; stroke: #2563eb; stroke-width: 1.3; stroke-linecap: round"/>
    <path d="M 68.798298 112.503912 
L 63.044223 113.334951 
L 65.831836 108.233068 
z
" clip-path="url(#p72c183ff12)" style="fill: #2563eb; stroke: #2563eb; stroke-width: 1.3; stroke-linecap: round"/>
   </g>
   <g id="patch_12">
    <path d="M 39.006 316.0008 
L 193.014 316.0008 
Q 198.036 316.0008 198.036 311.0112 
L 198.036 271.6488 
Q 198.036 266.6592 193.014 266.6592 
L 39.006 266.6592 
Q 33.984 266.6592 33.984 271.6488 
L 33.984 311.0112 
Q 33.984 316.0008 39.006 316.0008 
z
" clip-path="url(#p72c183ff12)" style="fill: #fee2e2; stroke: #1f2937; stroke-width: 1.1; stroke-linejoin: miter"/>
   </g>
   <g id="patch_13">
    <path d="M 116.01 244.819819 
Q 116.01 256.679925 116.01 267.086586 
" clip-path="url(#p72c183ff12)" style="fill: none; stroke: #dc2626; stroke-width: 1.3; stroke-linecap: round"/>
    <path d="M 118.61 261.886586 
L 116.01 267.086586 
L 113.41 261.886586 
z
" clip-path="url(#p72c183ff12)" style="fill: #dc2626; stroke: #dc2626; stroke-width: 1.3; stroke-linecap: round"/>
   </g>
   <g id="patch_14">
    <path d="M 39.006 371.4408 
L 193.014 371.4408 
Q 198.036 371.4408 198.036 366.4512 
L 198.036 329.8608 
Q 198.036 324.8712 193.014 324.8712 
L 39.006 324.8712 
Q 33.984 324.8712 33.984 329.8608 
L 33.984 366.4512 
Q 33.984 371.4408 39.006 371.4408 
z
" clip-path="url(#p72c183ff12)" style="fill: #dcfce7; stroke: #1f2937; stroke-width: 1.1; stroke-linejoin: miter"/>
   </g>
   <g id="patch_15">
    <path d="M 116.01 314.12185 
Q 116.01 320.438603 116.01 325.301912 
" clip-path="url(#p72c183ff12)" style="fill: none; stroke: #374151; stroke-width: 1.3; stroke-linecap: round"/>
    <path d="M 118.61 320.101912 
L 116.01 325.301912 
L 113.41 320.101912 
z
" clip-path="url(#p72c183ff12)" style="fill: #374151; stroke: #374151; stroke-width: 1.3; stroke-linecap: round"/>
   </g>
   <g id="line2d_1">
    <path d="M 60.21 173.52 
L 60.21 242.82 
" clip-path="url(#p72c183ff12)" style="fill: none; stroke: #dc2626; stroke-width: 1.3; stroke-linecap: round"/>
   </g>
   <g id="line2d_2">
    <path d="M 60.21 242.82 
L 116.01 242.82 
" clip-path="url(#p72c183ff12)" style="fill: none; stroke: #dc2626; stroke-width: 1.3; stroke-linecap: round"/>
   </g>
   <g id="text_1">
    <text style="font: 700 12.5px 'Noto Sans CJK SC', 'WenQuanYi Micro Hei', 'DejaVu Sans', sans-serif; text-anchor: middle" x="272.25" y="23.832" transform="rotate(-0 272.25 23.832)">增量式重建主循环（每轮注册一张新影像）</text>
   </g>
   <g id="text_2">
    <text style="fill: #111827; font: 9.6px 'Noto Sans CJK SC', 'WenQuanYi Micro Hei', 'DejaVu Sans', sans-serif" transform="translate(34.96275 141.37755)">① 候选影像</text>
    <text style="fill: #111827; font: 9.6px 'Noto Sans CJK SC', 'WenQuanYi Micro Hei', 'DejaVu Sans', sans-serif" transform="translate(50.61 152.43795)">选择</text>
   </g>
   <g id="text_3">
    <text style="fill: #4b5563; font: 7.6px 'Noto Sans CJK SC', 'WenQuanYi Micro Hei', 'DejaVu Sans', sans-serif" transform="translate(21.942219 193.59265)">覆盖率打分 + 试解取优</text>
    <text style="fill: #4b5563; font: 7.6px 'Noto Sans CJK SC', 'WenQuanYi Micro Hei', 'DejaVu Sans', sans-serif" transform="translate(21.942219 202.3488)">（至多 8 个候选试算）</text>
   </g>
   <g id="text_4">
    <text style="fill: #111827; font: 9.6px 'Noto Sans CJK SC', 'WenQuanYi Micro Hei', 'DejaVu Sans', sans-serif" transform="translate(140.98275 141.37755)">② 姿态解算</text>
    <text style="fill: #111827; font: 9.6px 'Noto Sans CJK SC', 'WenQuanYi Micro Hei', 'DejaVu Sans', sans-serif" transform="translate(148.27125 152.43795)">（PnP）</text>
   </g>
   <g id="text_5">
    <text style="fill: #4b5563; font: 7.6px 'Noto Sans CJK SC', 'WenQuanYi Micro Hei', 'DejaVu Sans', sans-serif" transform="translate(135.562219 193.59265)">采样一致性 4 像素</text>
    <text style="fill: #4b5563; font: 7.6px 'Noto Sans CJK SC', 'WenQuanYi Micro Hei', 'DejaVu Sans', sans-serif" transform="translate(122.823312 202.3488)">内点 ≥ 30 且内点率 ≥ 0.10</text>
   </g>
   <g id="text_6">
    <text style="fill: #111827; font: 9.6px 'Noto Sans CJK SC', 'WenQuanYi Micro Hei', 'DejaVu Sans', sans-serif" transform="translate(247.00275 141.37755)">③ 新增轨迹</text>
    <text style="fill: #111827; font: 9.6px 'Noto Sans CJK SC', 'WenQuanYi Micro Hei', 'DejaVu Sans', sans-serif" transform="translate(257.85 152.43795)">三角化</text>
   </g>
   <g id="text_7">
    <text style="fill: #4b5563; font: 7.6px 'Noto Sans CJK SC', 'WenQuanYi Micro Hei', 'DejaVu Sans', sans-serif" transform="translate(244.681594 193.59265)">夹角 [0.5°, 120°]</text>
    <text style="fill: #4b5563; font: 7.6px 'Noto Sans CJK SC', 'WenQuanYi Micro Hei', 'DejaVu Sans', sans-serif" transform="translate(244.008875 202.3488)">重投影 ≤ 16 像素</text>
   </g>
   <g id="text_8">
    <text style="fill: #111827; font: 9.6px 'Noto Sans CJK SC', 'WenQuanYi Micro Hei', 'DejaVu Sans', sans-serif" transform="translate(351.23175 141.37755)">④ 局部/全局</text>
    <text style="fill: #111827; font: 9.6px 'Noto Sans CJK SC', 'WenQuanYi Micro Hei', 'DejaVu Sans', sans-serif" transform="translate(354.27 152.43795)">光束法平差</text>
   </g>
   <g id="text_9">
    <text style="fill: #4b5563; font: 7.6px 'Noto Sans CJK SC', 'WenQuanYi Micro Hei', 'DejaVu Sans', sans-serif" transform="translate(332.735906 193.59265)">注册数 ≤ 100 全用全局平差</text>
    <text style="fill: #4b5563; font: 7.6px 'Noto Sans CJK SC', 'WenQuanYi Micro Hei', 'DejaVu Sans', sans-serif" transform="translate(333.455531 202.3488)">&gt; 100 转局部 + 周期性全局</text>
   </g>
   <g id="text_10">
    <text style="fill: #111827; font: 9.6px 'Noto Sans CJK SC', 'WenQuanYi Micro Hei', 'DejaVu Sans', sans-serif" transform="translate(454.24275 141.37755)">⑤ 轨迹重三角</text>
    <text style="fill: #111827; font: 9.6px 'Noto Sans CJK SC', 'WenQuanYi Micro Hei', 'DejaVu Sans', sans-serif" transform="translate(455.49 152.43795)">化与观测恢复</text>
   </g>
   <g id="text_11">
    <text style="fill: #4b5563; font: 7.6px 'Noto Sans CJK SC', 'WenQuanYi Micro Hei', 'DejaVu Sans', sans-serif" transform="translate(453.622219 193.59265)">待处理队列每 3 轮</text>
    <text style="fill: #4b5563; font: 7.6px 'Noto Sans CJK SC', 'WenQuanYi Micro Hei', 'DejaVu Sans', sans-serif" transform="translate(455.32925 202.3488)">全表扫描每 10 轮</text>
   </g>
   <g id="text_12">
    <text style="fill: #2563eb; font: 9px 'Noto Sans CJK SC', 'WenQuanYi Micro Hei', 'DejaVu Sans', sans-serif; text-anchor: middle" x="272.25" y="76.5" transform="rotate(-0 272.25 76.5)">存在未注册且可解算的候选影像 → 继续下一轮</text>
   </g>
   <g id="text_13">
    <text style="fill: #111827; font: 9.6px 'Noto Sans CJK SC', 'WenQuanYi Micro Hei', 'DejaVu Sans', sans-serif" transform="translate(87.21 288.29355)">无可解算候选</text>
    <text style="fill: #111827; font: 9.6px 'Noto Sans CJK SC', 'WenQuanYi Micro Hei', 'DejaVu Sans', sans-serif" transform="translate(87.21 299.35395)">（连续两轮）</text>
   </g>
   <g id="text_14">
    <text style="fill: #111827; font: 9.6px 'Noto Sans CJK SC', 'WenQuanYi Micro Hei', 'DejaVu Sans', sans-serif" transform="translate(78.519 345.11955)">收尾：全局平差 +</text>
    <text style="fill: #111827; font: 9.6px 'Noto Sans CJK SC', 'WenQuanYi Micro Hei', 'DejaVu Sans', sans-serif" transform="translate(72.81 356.17995)">待处理轨迹重三角化</text>
   </g>
  </g>
 </g>
 <defs>
  <clipPath id="p72c183ff12">
   <rect x="7.2" y="7.2" width="530.1" height="365.904"/>
  </clipPath>
 </defs>
</svg>
